<svg xmlns="http://www.w3.org/2000/svg" viewBox="0 0 83.74 26.62" fill="#ffffff">
    <path d="M82.73 9.28a7.48 7.48 0 0 0-5.31-3.88 9.38 9.38 0 0 0-5.25.79c.06-2.06 0-4.13 0-6.19a4.25 4.25 0 0 0-2.58 1.45 6.86 6.86 0 0 0-1.27 4.27v15.66h7.76a8.09 8.09 0 0 0 4.77-1.46 7 7 0 0 0 2.6-4.16 9.41 9.41 0 0 0-.72-6.48zm-2.84 5.55a4.58 4.58 0 0 1-2.2 3.23 3.33 3.33 0 0 1-1.69.34h-3.8V8.6h3.82a3.94 3.94 0 0 1 3 1.65 5.85 5.85 0 0 1 .87 4.58zM39.9 3.35a7.89 7.89 0 0 0-.51 3.14v14.89h4.07V.43a4.82 4.82 0 0 0-3.56 2.92zM10.37 5.62V18.4H7.72A3.68 3.68 0 0 1 5 16.89a5.61 5.61 0 0 1-1-3.33V5.62H0v8.32a7.83 7.83 0 0 0 2 5.5 7.84 7.84 0 0 0 5.47 1.93h6.94V5.61zm20 .54a9.18 9.18 0 0 0-3.44-.54h-7.34v15.5a7.46 7.46 0 0 0 .93 3.95 3.57 3.57 0 0 0 2.9 1.55v-5.76a13.32 13.32 0 0 0 3.41.87A7.53 7.53 0 0 0 32.16 20a8 8 0 0 0 2.73-5.19 9.74 9.74 0 0 0-.7-5.08 6.67 6.67 0 0 0-3.8-3.57zm.8 8.18a4.77 4.77 0 0 1-1.9 3.35 3.81 3.81 0 0 1-2.21.7h-3.65v-9.8h4.32a3.38 3.38 0 0 1 2.49 1.46 6 6 0 0 1 .97 4.29zm24.6-8.71a8.87 8.87 0 0 0-5.42 1.73 7.08 7.08 0 0 0-2.52 4.84 9.16 9.16 0 0 0 1.28 6.15 6.82 6.82 0 0 0 4.09 2.76 10.42 10.42 0 0 0 2.54.27h7.4V5.61c-2.44.04-4.89-.01-7.35.02zm3.52 12.77h-4.22a3.51 3.51 0 0 1-2.86-1.92 6.22 6.22 0 0 1-.6-4.24 4.56 4.56 0 0 1 2.23-3.15 3.72 3.72 0 0 1 1.74-.46h3.72c0 3.25.01 6.51.01 9.78z" data-name="Layer 2"/>
</svg>
